<svg width="186" height="60" viewBox="0 0 186 60" fill="none" xmlns="http://www.w3.org/2000/svg">
<rect x="60" y="60" width="60" height="60" rx="30" transform="rotate(180 60 60)" fill="#8B58CA"/>
<rect x="63" y="51" width="46" height="46" rx="23" transform="rotate(180 63 51)" fill="#FAF9FF"/>
<path d="M82.54 29.25V35.165C82.54 35.515 82.7267 35.7133 83.1 35.76L86.355 36.18V38H75.12V36.18L77.15 35.795C77.5233 35.725 77.71 35.5033 77.71 35.13V20.99C77.71 20.57 77.5117 20.325 77.115 20.255L75.12 19.87V17.945H90.415C90.5317 18.8317 90.59 19.73 90.59 20.64C90.6133 21.5267 90.59 22.4367 90.52 23.37H88.245L87.545 21.025C87.405 20.5817 87.16 20.3017 86.81 20.185C86.5767 20.115 86.2617 20.0567 85.865 20.01C85.4917 19.94 85.095 19.905 84.675 19.905H82.54V26.975L88 26.8V29.39L82.54 29.25ZM98.9241 35.2C98.9241 35.62 99.1224 35.865 99.5191 35.935L100.884 36.18V38H92.3441V36.18L93.7091 35.935C94.1058 35.865 94.3041 35.62 94.3041 35.2V26.555C94.3041 26.135 94.1174 25.89 93.7441 25.82L92.2041 25.505V23.615C93.1141 23.3583 94.1291 23.1717 95.2491 23.055C96.3691 22.9383 97.3841 22.88 98.2941 22.88L98.9241 23.44V35.2ZM98.8891 18.855C98.8891 19.555 98.6558 20.115 98.1891 20.535C97.7458 20.955 97.1508 21.165 96.4041 21.165C95.6341 21.165 95.0158 20.955 94.5491 20.535C94.1058 20.115 93.8841 19.555 93.8841 18.855C93.8841 18.155 94.1058 17.6067 94.5491 17.21C95.0158 16.79 95.6341 16.58 96.4041 16.58C97.1508 16.58 97.7458 16.79 98.1891 17.21C98.6558 17.6067 98.8891 18.155 98.8891 18.855ZM112.015 38V36.18L112.89 35.935C113.076 35.8883 113.216 35.8067 113.31 35.69C113.403 35.5733 113.45 35.41 113.45 35.2V28.865C113.45 27.6517 113.275 26.8 112.925 26.31C112.575 25.82 112.026 25.575 111.28 25.575C110.79 25.575 110.276 25.68 109.74 25.89C109.226 26.0767 108.736 26.3683 108.27 26.765L108.305 25.47C108.935 24.5833 109.693 23.93 110.58 23.51C111.466 23.0667 112.47 22.845 113.59 22.845C115.316 22.845 116.483 23.3233 117.09 24.28C117.72 25.2367 118.035 26.6017 118.035 28.375V35.2C118.035 35.62 118.233 35.865 118.63 35.935L120.03 36.18V38H112.015ZM102.53 38V36.18L103.93 35.935C104.303 35.865 104.49 35.62 104.49 35.2V26.555C104.49 26.135 104.303 25.89 103.93 25.82L102.39 25.505V23.615C103.276 23.3817 104.21 23.2067 105.19 23.09C106.17 22.9733 107.091 22.9033 107.955 22.88L108.62 23.44L109.11 26.065V35.2C109.11 35.5733 109.296 35.8183 109.67 35.935L110.51 36.18V38H102.53ZM125.628 38.28C124.344 38.28 123.318 37.9417 122.548 37.265C121.778 36.5883 121.393 35.69 121.393 34.57C121.393 33.6367 121.649 32.855 122.163 32.225C122.699 31.595 123.399 31.1167 124.263 30.79C125.126 30.44 126.048 30.2417 127.028 30.195L130.353 30.02V31.7L128.218 31.84C127.401 31.8633 126.841 32.085 126.538 32.505C126.234 32.925 126.083 33.4383 126.083 34.045C126.083 34.6283 126.199 35.06 126.433 35.34C126.666 35.62 127.051 35.76 127.588 35.76C128.124 35.76 128.626 35.655 129.093 35.445C129.559 35.2117 129.944 34.9083 130.248 34.535L130.598 35.515C130.154 36.4017 129.501 37.09 128.638 37.58C127.774 38.0467 126.771 38.28 125.628 38.28ZM121.813 26.415C122.233 25.3183 122.968 24.455 124.018 23.825C125.091 23.1717 126.491 22.845 128.218 22.845C130.294 22.845 131.788 23.3233 132.698 24.28C133.608 25.2133 134.063 26.6133 134.063 28.48V35.095C134.063 35.5617 134.284 35.8183 134.728 35.865L135.988 36.04V37.755C135.638 37.8483 135.171 37.9533 134.588 38.07C134.028 38.1867 133.491 38.245 132.978 38.245C132.091 38.245 131.356 38.0583 130.773 37.685C130.189 37.2883 129.804 36.5883 129.618 35.585V28.55C129.618 27.5233 129.373 26.8117 128.883 26.415C128.416 26.0183 127.739 25.82 126.853 25.82C126.083 25.82 125.359 25.9483 124.683 26.205C124.029 26.4383 123.423 26.8117 122.863 27.325L121.813 26.415ZM146.98 38V36.18L147.855 35.935C148.042 35.8883 148.182 35.8067 148.275 35.69C148.369 35.5733 148.415 35.41 148.415 35.2V28.865C148.415 27.6517 148.24 26.8 147.89 26.31C147.54 25.82 146.992 25.575 146.245 25.575C145.755 25.575 145.242 25.68 144.705 25.89C144.192 26.0767 143.702 26.3683 143.235 26.765L143.27 25.47C143.9 24.5833 144.659 23.93 145.545 23.51C146.432 23.0667 147.435 22.845 148.555 22.845C150.282 22.845 151.449 23.3233 152.055 24.28C152.685 25.2367 153 26.6017 153 28.375V35.2C153 35.62 153.199 35.865 153.595 35.935L154.995 36.18V38H146.98ZM137.495 38V36.18L138.895 35.935C139.269 35.865 139.455 35.62 139.455 35.2V26.555C139.455 26.135 139.269 25.89 138.895 25.82L137.355 25.505V23.615C138.242 23.3817 139.175 23.2067 140.155 23.09C141.135 22.9733 142.057 22.9033 142.92 22.88L143.585 23.44L144.075 26.065V35.2C144.075 35.5733 144.262 35.8183 144.635 35.935L145.475 36.18V38H137.495ZM156.534 30.825C156.534 29.075 156.849 27.6167 157.479 26.45C158.132 25.26 159.019 24.3617 160.139 23.755C161.259 23.1483 162.53 22.845 163.954 22.845C164.864 22.845 165.762 22.95 166.649 23.16C167.535 23.37 168.27 23.6383 168.854 23.965C168.924 24.8283 168.924 25.68 168.854 26.52C168.807 27.36 168.714 28.1767 168.574 28.97H166.334L165.599 26.415C165.505 26.1117 165.424 25.8783 165.354 25.715C165.284 25.5517 165.19 25.4233 165.074 25.33C164.934 25.2133 164.759 25.1083 164.549 25.015C164.339 24.9217 164.105 24.875 163.849 24.875C163.195 24.875 162.635 25.2833 162.169 26.1C161.702 26.8933 161.469 28.2583 161.469 30.195C161.469 31.9683 161.725 33.31 162.239 34.22C162.752 35.1067 163.615 35.55 164.829 35.55C165.575 35.55 166.229 35.4217 166.789 35.165C167.349 34.885 167.78 34.6167 168.084 34.36L169.064 35.13C168.76 36.0633 168.107 36.8333 167.104 37.44C166.124 38.0467 164.864 38.35 163.324 38.35C161.76 38.35 160.477 38.0233 159.474 37.37C158.47 36.6933 157.724 35.7833 157.234 34.64C156.767 33.4967 156.534 32.225 156.534 30.825ZM171.061 30.72C171.061 28.1533 171.679 26.205 172.916 24.875C174.176 23.5217 175.961 22.845 178.271 22.845C180.301 22.845 181.771 23.3233 182.681 24.28C183.591 25.2367 184.046 26.45 184.046 27.92C184.046 28.27 184.022 28.6317 183.976 29.005C183.952 29.3783 183.906 29.7283 183.836 30.055H174.211V28.375H179.846C179.869 28.2583 179.881 28.1533 179.881 28.06C179.881 27.9667 179.881 27.85 179.881 27.71C179.881 26.8233 179.729 26.1 179.426 25.54C179.122 24.98 178.632 24.7 177.956 24.7C177.279 24.7 176.742 25.0733 176.346 25.82C175.949 26.5433 175.751 27.9083 175.751 29.915C175.751 31.2217 175.856 32.295 176.066 33.135C176.276 33.9517 176.637 34.5583 177.151 34.955C177.687 35.3517 178.399 35.55 179.286 35.55C179.986 35.55 180.662 35.4333 181.316 35.2C181.969 34.9667 182.517 34.605 182.961 34.115L183.941 34.85C183.614 35.9933 182.902 36.8683 181.806 37.475C180.732 38.0583 179.426 38.35 177.886 38.35C176.322 38.35 175.039 38.0467 174.036 37.44C173.032 36.81 172.286 35.9233 171.796 34.78C171.306 33.6367 171.061 32.2833 171.061 30.72Z" fill="#8B58CA"/>
<rect x="57.7143" y="59.7144" width="45.7143" height="45.7143" rx="22.8571" transform="rotate(180 57.7143 59.7144)" fill="#8B58CA"/>
<rect x="60" y="52.8572" width="35.0476" height="35.0476" rx="17.5238" transform="rotate(180 60 52.8572)" fill="#FAF9FF"/>
<path d="M82.54 29.25V35.165C82.54 35.515 82.7267 35.7133 83.1 35.76L86.355 36.18V38H75.12V36.18L77.15 35.795C77.5233 35.725 77.71 35.5033 77.71 35.13V20.99C77.71 20.57 77.5117 20.325 77.115 20.255L75.12 19.87V17.945H90.415C90.5317 18.8317 90.59 19.73 90.59 20.64C90.6133 21.5267 90.59 22.4367 90.52 23.37H88.245L87.545 21.025C87.405 20.5817 87.16 20.3017 86.81 20.185C86.5767 20.115 86.2617 20.0567 85.865 20.01C85.4917 19.94 85.095 19.905 84.675 19.905H82.54V26.975L88 26.8V29.39L82.54 29.25ZM98.9241 35.2C98.9241 35.62 99.1224 35.865 99.5191 35.935L100.884 36.18V38H92.3441V36.18L93.7091 35.935C94.1058 35.865 94.3041 35.62 94.3041 35.2V26.555C94.3041 26.135 94.1174 25.89 93.7441 25.82L92.2041 25.505V23.615C93.1141 23.3583 94.1291 23.1717 95.2491 23.055C96.3691 22.9383 97.3841 22.88 98.2941 22.88L98.9241 23.44V35.2ZM98.8891 18.855C98.8891 19.555 98.6558 20.115 98.1891 20.535C97.7458 20.955 97.1508 21.165 96.4041 21.165C95.6341 21.165 95.0158 20.955 94.5491 20.535C94.1058 20.115 93.8841 19.555 93.8841 18.855C93.8841 18.155 94.1058 17.6067 94.5491 17.21C95.0158 16.79 95.6341 16.58 96.4041 16.58C97.1508 16.58 97.7458 16.79 98.1891 17.21C98.6558 17.6067 98.8891 18.155 98.8891 18.855ZM112.015 38V36.18L112.89 35.935C113.076 35.8883 113.216 35.8067 113.31 35.69C113.403 35.5733 113.45 35.41 113.45 35.2V28.865C113.45 27.6517 113.275 26.8 112.925 26.31C112.575 25.82 112.026 25.575 111.28 25.575C110.79 25.575 110.276 25.68 109.74 25.89C109.226 26.0767 108.736 26.3683 108.27 26.765L108.305 25.47C108.935 24.5833 109.693 23.93 110.58 23.51C111.466 23.0667 112.47 22.845 113.59 22.845C115.316 22.845 116.483 23.3233 117.09 24.28C117.72 25.2367 118.035 26.6017 118.035 28.375V35.2C118.035 35.62 118.233 35.865 118.63 35.935L120.03 36.18V38H112.015ZM102.53 38V36.18L103.93 35.935C104.303 35.865 104.49 35.62 104.49 35.2V26.555C104.49 26.135 104.303 25.89 103.93 25.82L102.39 25.505V23.615C103.276 23.3817 104.21 23.2067 105.19 23.09C106.17 22.9733 107.091 22.9033 107.955 22.88L108.62 23.44L109.11 26.065V35.2C109.11 35.5733 109.296 35.8183 109.67 35.935L110.51 36.18V38H102.53ZM125.628 38.28C124.344 38.28 123.318 37.9417 122.548 37.265C121.778 36.5883 121.393 35.69 121.393 34.57C121.393 33.6367 121.649 32.855 122.163 32.225C122.699 31.595 123.399 31.1167 124.263 30.79C125.126 30.44 126.048 30.2417 127.028 30.195L130.353 30.02V31.7L128.218 31.84C127.401 31.8633 126.841 32.085 126.538 32.505C126.234 32.925 126.083 33.4383 126.083 34.045C126.083 34.6283 126.199 35.06 126.433 35.34C126.666 35.62 127.051 35.76 127.588 35.76C128.124 35.76 128.626 35.655 129.093 35.445C129.559 35.2117 129.944 34.9083 130.248 34.535L130.598 35.515C130.154 36.4017 129.501 37.09 128.638 37.58C127.774 38.0467 126.771 38.28 125.628 38.28ZM121.813 26.415C122.233 25.3183 122.968 24.455 124.018 23.825C125.091 23.1717 126.491 22.845 128.218 22.845C130.294 22.845 131.788 23.3233 132.698 24.28C133.608 25.2133 134.063 26.6133 134.063 28.48V35.095C134.063 35.5617 134.284 35.8183 134.728 35.865L135.988 36.04V37.755C135.638 37.8483 135.171 37.9533 134.588 38.07C134.028 38.1867 133.491 38.245 132.978 38.245C132.091 38.245 131.356 38.0583 130.773 37.685C130.189 37.2883 129.804 36.5883 129.618 35.585V28.55C129.618 27.5233 129.373 26.8117 128.883 26.415C128.416 26.0183 127.739 25.82 126.853 25.82C126.083 25.82 125.359 25.9483 124.683 26.205C124.029 26.4383 123.423 26.8117 122.863 27.325L121.813 26.415ZM146.98 38V36.18L147.855 35.935C148.042 35.8883 148.182 35.8067 148.275 35.69C148.369 35.5733 148.415 35.41 148.415 35.2V28.865C148.415 27.6517 148.24 26.8 147.89 26.31C147.54 25.82 146.992 25.575 146.245 25.575C145.755 25.575 145.242 25.68 144.705 25.89C144.192 26.0767 143.702 26.3683 143.235 26.765L143.27 25.47C143.9 24.5833 144.659 23.93 145.545 23.51C146.432 23.0667 147.435 22.845 148.555 22.845C150.282 22.845 151.449 23.3233 152.055 24.28C152.685 25.2367 153 26.6017 153 28.375V35.2C153 35.62 153.199 35.865 153.595 35.935L154.995 36.18V38H146.98ZM137.495 38V36.18L138.895 35.935C139.269 35.865 139.455 35.62 139.455 35.2V26.555C139.455 26.135 139.269 25.89 138.895 25.82L137.355 25.505V23.615C138.242 23.3817 139.175 23.2067 140.155 23.09C141.135 22.9733 142.057 22.9033 142.92 22.88L143.585 23.44L144.075 26.065V35.2C144.075 35.5733 144.262 35.8183 144.635 35.935L145.475 36.18V38H137.495ZM156.534 30.825C156.534 29.075 156.849 27.6167 157.479 26.45C158.132 25.26 159.019 24.3617 160.139 23.755C161.259 23.1483 162.53 22.845 163.954 22.845C164.864 22.845 165.762 22.95 166.649 23.16C167.535 23.37 168.27 23.6383 168.854 23.965C168.924 24.8283 168.924 25.68 168.854 26.52C168.807 27.36 168.714 28.1767 168.574 28.97H166.334L165.599 26.415C165.505 26.1117 165.424 25.8783 165.354 25.715C165.284 25.5517 165.19 25.4233 165.074 25.33C164.934 25.2133 164.759 25.1083 164.549 25.015C164.339 24.9217 164.105 24.875 163.849 24.875C163.195 24.875 162.635 25.2833 162.169 26.1C161.702 26.8933 161.469 28.2583 161.469 30.195C161.469 31.9683 161.725 33.31 162.239 34.22C162.752 35.1067 163.615 35.55 164.829 35.55C165.575 35.55 166.229 35.4217 166.789 35.165C167.349 34.885 167.78 34.6167 168.084 34.36L169.064 35.13C168.76 36.0633 168.107 36.8333 167.104 37.44C166.124 38.0467 164.864 38.35 163.324 38.35C161.76 38.35 160.477 38.0233 159.474 37.37C158.47 36.6933 157.724 35.7833 157.234 34.64C156.767 33.4967 156.534 32.225 156.534 30.825ZM171.061 30.72C171.061 28.1533 171.679 26.205 172.916 24.875C174.176 23.5217 175.961 22.845 178.271 22.845C180.301 22.845 181.771 23.3233 182.681 24.28C183.591 25.2367 184.046 26.45 184.046 27.92C184.046 28.27 184.022 28.6317 183.976 29.005C183.952 29.3783 183.906 29.7283 183.836 30.055H174.211V28.375H179.846C179.869 28.2583 179.881 28.1533 179.881 28.06C179.881 27.9667 179.881 27.85 179.881 27.71C179.881 26.8233 179.729 26.1 179.426 25.54C179.122 24.98 178.632 24.7 177.956 24.7C177.279 24.7 176.742 25.0733 176.346 25.82C175.949 26.5433 175.751 27.9083 175.751 29.915C175.751 31.2217 175.856 32.295 176.066 33.135C176.276 33.9517 176.637 34.5583 177.151 34.955C177.687 35.3517 178.399 35.55 179.286 35.55C179.986 35.55 180.662 35.4333 181.316 35.2C181.969 34.9667 182.517 34.605 182.961 34.115L183.941 34.85C183.614 35.9933 182.902 36.8683 181.806 37.475C180.732 38.0583 179.426 38.35 177.886 38.35C176.322 38.35 175.039 38.0467 174.036 37.44C173.032 36.81 172.286 35.9233 171.796 34.78C171.306 33.6367 171.061 32.2833 171.061 30.72Z" fill="#8B58CA"/>
</svg>
